<?xml version="1.0" encoding="UTF-8"?>
<svg width="490px" height="128px" viewBox="0 0 490 128" version="1.1" xmlns="http://www.w3.org/2000/svg" xmlns:xlink="http://www.w3.org/1999/xlink">
    <!-- Generator: Sketch 51.2 (57519) - http://www.bohemiancoding.com/sketch -->
    <title>logo/横/原色</title>
    <desc>Created with Sketch.</desc>
    <defs></defs>
    <g id="logo/横/原色" stroke="none" stroke-width="1" fill="none" fill-rule="evenodd">
        <g id="logo-2">
            <path d="M101.0806,81.6738 C101.1506,85.4868 98.5406,90.1718 95.2526,92.1398 C95.2526,92.1398 64.4066,111.5858 63.9106,111.8988 C57.3526,116.0258 49.4886,111.4358 49.4846,111.4348 C36.4766,104.8848 20.7416,95.5938 20.7416,95.5938 C15.8856,92.8898 12.8436,86.2998 12.8476,82.5798 C12.8476,82.3068 13.1246,46.5348 13.1246,46.5348 C13.4046,41.1508 16.4176,37.6778 18.9536,36.0698 C18.9536,36.0698 40.9556,22.0288 49.5366,16.7018 C52.6966,14.7408 59.9016,13.8588 64.7566,16.5628 C64.7566,16.5628 80.9396,25.0478 93.3576,32.6588 C93.3606,32.6608 101.4036,36.9318 101.3476,44.6778 L101.0806,81.6738 Z M103.6036,23.7778 C87.6766,14.0148 66.9176,3.1298 66.9176,3.1298 C60.6896,-0.3392 51.4486,0.7938 47.3946,3.3098 C36.3886,10.1428 8.1666,28.1528 8.1666,28.1528 C4.9136,30.2158 1.0496,34.6688 0.6906,41.5758 C0.6906,41.5758 0.3336,87.4598 0.3336,87.8118 C0.3296,92.5818 4.2316,101.0348 10.4596,104.5038 C10.4596,104.5038 30.6426,116.4198 47.3296,124.8208 C47.3336,124.8238 57.4216,130.7098 65.8316,125.4178 C66.4686,125.0168 106.0346,100.0718 106.0346,100.0718 C110.2526,97.5488 113.5996,91.5388 113.5106,86.6488 L113.8526,39.1948 C113.9246,29.2568 103.6086,23.7798 103.6036,23.7778 Z" id="Fill-19" fill="#194EA0"></path>
            <path d="M52.4248,83.6924 L52.4248,102.0204 C51.6058,101.6814 51.1028,101.3934 51.1018,101.3934 C40.8518,96.2324 28.4528,88.9114 28.4528,88.9114 C24.6268,86.7804 22.2288,81.5884 22.2318,78.6574 C22.2328,78.4794 22.3818,59.2714 22.4338,52.5534 L37.8868,60.5424 L37.8868,70.2724 C37.8868,73.3824 39.5458,76.2564 42.2398,77.8124 L52.4248,83.6924 Z M40.9028,51.5742 L25.2768,43.4972 C25.8578,42.8822 26.4648,42.3762 27.0438,42.0082 C27.0438,42.0082 44.3808,30.9442 51.1428,26.7472 C53.6328,25.2012 59.3098,24.5062 63.1358,26.6372 C63.1358,26.6372 75.8878,33.3232 85.6728,39.3202 C85.6738,39.3212 88.7458,40.9592 90.5978,44.0132 L74.2058,52.4862 C73.5738,51.7492 72.8278,51.1002 71.9608,50.5992 L61.4528,44.5332 C58.7598,42.9782 55.4408,42.9782 52.7468,44.5332 L42.2398,50.5992 C41.7548,50.8802 41.3168,51.2152 40.9028,51.5742 Z M76.314,61.9238 L91.932,53.8508 C91.758,77.9408 91.758,77.9438 91.758,77.9438 C91.813,80.9468 89.757,84.6398 87.166,86.1898 C87.166,86.1898 62.859,101.5128 62.468,101.7588 C62.24,101.9028 62.007,102.0178 61.775,102.1358 L61.775,83.6938 L71.961,77.8128 C74.654,76.2568 76.314,73.3828 76.314,70.2728 L76.314,61.9238 Z" id="Combined-Shape" fill="#ED1C27"></path>
            <path d="M289.6035,42.932 C301.6845,42.932 311.5595,53.122 311.5595,65.381 C311.5595,77.78 301.7295,87.83 289.6035,87.83 C284.4215,87.83 279.6675,85.985 275.9125,82.914 C278.2445,80.292 280.0535,77.199 281.1395,73.774 C283.2945,76.01 286.2905,77.399 289.6035,77.399 C296.1685,77.399 301.4915,71.957 301.4915,65.244 C301.4915,58.532 296.1685,53.089 289.6035,53.089 C283.0385,53.089 277.7155,58.532 277.7155,65.244 L277.7085,65.251 C277.6705,70.705 276.1205,75.969 272.7365,79.745 C270.6835,82.036 265.1495,87.83 255.6835,87.83 L228.5415,87.83 C231.6975,83.887 233.8015,77.839 233.8015,72.711 C233.8015,72.711 233.8585,71.248 233.8585,65.48 C233.8585,52.991 243.7195,42.998 255.8145,42.998 C260.9425,42.998 265.6745,44.707 269.3565,47.732 C266.9905,50.361 265.2815,53.516 264.3605,56.935 C262.1245,54.7 259.1015,53.253 255.8145,53.253 C249.2415,53.253 243.8505,58.775 243.8505,65.48 L243.8505,72.317 C243.8505,75.209 246.0855,77.576 248.9785,77.576 L255.6835,77.576 C262.1245,77.576 267.7225,72.81 267.7225,63.998 C268.4255,52.248 277.9345,42.932 289.6035,42.932 Z M172.27,51.64 L150.389,51.64 L151.146,47.78 L154.623,47.78 L155.593,42.882 L179.177,42.882 C179.062,43.445 178.786,44.88 178.468,46.38 C177.995,48.611 175.572,51.64 172.27,51.64 Z M137,87.832 C141.523,82.305 142.469,75.191 143.104,70.945 C143.749,66.638 144.481,59.627 150.46,59.627 L176.148,59.627 L175.439,63.15 C175.156,64.573 174.304,65.875 173.168,66.84 C172.057,67.806 170.661,68.385 169.266,68.385 L158.733,68.385 C157.373,68.435 155.02,68.481 154.41,72.441 C154.136,74.217 153.458,76.957 152.896,78.326 C151.306,82.201 149.124,87.832 137,87.832 Z M146.486,47.369 L150.389,47.369 L149.608,51.327 L145.706,51.327 L146.486,47.369 Z M150.649,42.303 L154.978,42.303 L154.103,46.718 L149.773,46.718 L150.649,42.303 Z M144.215,41 L149.822,41 L148.687,46.718 L143.08,46.718 L144.215,41 Z M194.884,42.882 L188.544,74.755 C187.169,80.744 185.156,88.098 171.583,87.832 C174.391,84.401 175.913,79.966 176.385,77.433 L183.435,42.882 L194.884,42.882 Z M210.533,87.832 L187.74,87.832 C189.704,85.419 191.217,82.235 192.092,79.243 L209.928,79.243 C215.573,79.243 218.586,77.747 218.989,75.19 C219.65,71.932 218.255,70.75 216.244,70.315 C214.873,70.026 210.292,70.23 206.479,69.815 C202.314,69.362 200.111,68.241 198.527,66.407 C196.942,64.573 196.043,61.981 196.043,57.6 C196.043,52.46 197.627,48.866 200.301,46.526 C203.02,44.161 206.901,43.027 211.371,42.882 L237.321,42.882 C234.671,45.367 232.589,48.408 231.17,51.786 L212.696,51.809 C210.505,51.809 205.363,52.847 205.363,57.069 C205.363,61.187 209.526,62.073 211.679,62.039 C224.187,61.844 229.041,63.244 228.806,72.004 C228.707,75.69 226.77,81.396 223.908,84.189 C220.339,87.673 213.395,87.832 210.533,87.832 Z" id="Combined-Shape" fill="#194EA0"></path>
            <path d="M423.4536,41.0498 C435.5346,41.0498 445.4096,51.2408 445.4096,63.4988 C445.4096,75.8988 435.5796,85.9488 423.4536,85.9488 C418.2716,85.9488 413.5176,84.1028 409.7626,81.0328 C412.0946,78.4108 413.9036,75.3178 414.9886,71.8918 C417.1446,74.1278 420.1396,75.5178 423.4536,75.5178 C430.0186,75.5178 435.3416,70.0748 435.3416,63.3618 C435.3416,56.6498 430.0186,51.2068 423.4536,51.2068 C416.8886,51.2068 411.5656,56.6498 411.5656,63.3618 L411.5586,63.3698 C411.5206,68.8228 409.9706,74.0868 406.5866,77.8638 C404.5336,80.1538 398.9996,85.9488 389.5336,85.9488 L362.3916,85.9488 C365.5476,82.0048 367.6506,75.9568 367.6506,70.8288 C367.6506,70.8288 367.7086,69.3668 367.7086,63.5988 C367.7086,51.1088 377.5686,41.1158 389.6646,41.1158 C394.7926,41.1158 399.5246,42.8248 403.2066,45.8498 C400.8406,48.4788 399.1316,51.6348 398.2106,55.0528 C395.9746,52.8178 392.9516,51.3708 389.6646,51.3708 C383.0916,51.3708 377.7006,56.8938 377.7006,63.5988 L377.7006,70.4358 C377.7006,73.3268 379.9356,75.6948 382.8286,75.6948 L389.5336,75.6948 C395.9746,75.6948 401.5726,70.9278 401.5726,62.1158 C402.2756,50.3658 411.7846,41.0498 423.4536,41.0498 Z M464.6069,41 L490.1499,41 C490.0329,41.573 489.7529,43.034 489.4279,44.563 C488.9469,46.832 486.4799,49.917 483.1189,49.917 L465.9319,49.928 C463.7419,49.928 458.5989,50.965 458.5989,55.188 C458.5989,59.305 462.7619,60.191 464.9149,60.157 C477.4229,59.963 482.2769,61.362 482.0419,70.122 C481.9419,73.809 480.0059,79.514 477.1439,82.308 C473.5749,85.792 466.6299,85.95 463.7689,85.95 L440.9759,85.95 C442.9389,83.538 444.4529,80.354 445.3289,77.36 L463.1639,77.36 C468.8089,77.36 471.8229,75.865 472.2249,73.308 C472.8859,70.05 471.4909,68.868 469.4799,68.434 C468.1079,68.144 463.5289,68.349 459.7149,67.933 C455.5489,67.479 453.3469,66.358 451.7629,64.524 C450.1769,62.691 449.2789,60.1 449.2789,55.718 C449.2789,50.579 450.8639,46.983 453.5369,44.644 C456.2559,42.279 460.1359,41.145 464.6069,41 Z M352.436,43.0206 C370.135,43.0206 363.878,61.5586 359.469,65.2396 C361.078,66.0446 363.233,77.5946 356.446,84.3026 C354.9,85.9526 351.479,87.7216 344.613,87.7216 C343.166,87.8526 322,87.8526 322,87.8526 L322,87.7216 L331.071,43.0206 L352.436,43.0206 Z M351.479,74.0156 C351.584,70.8536 349.208,70.1036 347.198,70.1036 L336.988,70.1036 L334.621,79.3076 C334.621,79.3076 341.178,79.2886 343.052,79.2886 C347.71,79.2886 351.347,77.9806 351.479,74.0156 Z M350.398,51.3036 C349.478,51.0396 344.218,51.0396 340.668,51.1716 L338.565,61.5586 C338.565,61.5586 346.585,61.4266 347.768,61.2946 C349.872,61.0326 352.764,58.6656 353.159,56.1676 C353.816,52.8806 352.37,51.6976 350.398,51.3036 Z" id="Combined-Shape" fill="#194EA0"></path>
        </g>
    </g>
</svg>